<svg width="100" height="100" viewBox="0 0 100 100" fill="none" xmlns="http://www.w3.org/2000/svg">
<rect width="100" height="100" fill="url(#paint0_linear_22_2)"/>
<path d="M68 60.5625C68 62.4167 67.6458 64.1562 66.9375 65.7812C66.2292 67.4062 65.2604 68.8333 64.0312 70.0625C62.8229 71.2708 61.4062 72.2292 59.7812 72.9375C58.1562 73.6458 56.4167 74 54.5625 74H32.1562V29.1875H54.5625C56.4167 29.1875 58.1562 29.5417 59.7812 30.25C61.4062 30.9583 62.8229 31.9271 64.0312 33.1562C65.2604 34.3646 66.2292 35.7812 66.9375 37.4062C67.6458 39.0312 68 40.7708 68 42.625C68 43.4583 67.8854 44.3125 67.6562 45.1875C67.4271 46.0625 67.1042 46.9062 66.6875 47.7188C66.2708 48.5312 65.7708 49.2708 65.1875 49.9375C64.6042 50.6042 63.9583 51.1562 63.25 51.5938C63.9792 51.9896 64.6354 52.5312 65.2188 53.2188C65.8021 53.8854 66.3021 54.625 66.7188 55.4375C67.1354 56.25 67.4479 57.1042 67.6562 58C67.8854 58.875 68 59.7292 68 60.5625ZM41.125 65.0312H54.5625C55.1875 65.0312 55.7708 64.9167 56.3125 64.6875C56.8542 64.4583 57.3229 64.1458 57.7188 63.75C58.1354 63.3333 58.4583 62.8542 58.6875 62.3125C58.9167 61.7708 59.0312 61.1875 59.0312 60.5625C59.0312 59.9375 58.9167 59.3542 58.6875 58.8125C58.4583 58.2708 58.1354 57.8021 57.7188 57.4062C57.3229 56.9896 56.8542 56.6667 56.3125 56.4375C55.7708 56.2083 55.1875 56.0938 54.5625 56.0938H41.125V65.0312ZM41.125 47.125H54.5625C55.1875 47.125 55.7708 47.0104 56.3125 46.7812C56.8542 46.5521 57.3229 46.2396 57.7188 45.8438C58.1354 45.4271 58.4583 44.9479 58.6875 44.4062C58.9167 43.8438 59.0312 43.25 59.0312 42.625C59.0312 42 58.9167 41.4167 58.6875 40.875C58.4583 40.3333 58.1354 39.8646 57.7188 39.4688C57.3229 39.0521 56.8542 38.7292 56.3125 38.5C55.7708 38.2708 55.1875 38.1562 54.5625 38.1562H41.125V47.125Z" fill="#818181"/>
<path d="M64 56.5625C64 58.4167 63.6458 60.1562 62.9375 61.7812C62.2292 63.4062 61.2604 64.8333 60.0312 66.0625C58.8229 67.2708 57.4062 68.2292 55.7812 68.9375C54.1562 69.6458 52.4167 70 50.5625 70H28.1562V25.1875H50.5625C52.4167 25.1875 54.1562 25.5417 55.7812 26.25C57.4062 26.9583 58.8229 27.9271 60.0312 29.1562C61.2604 30.3646 62.2292 31.7812 62.9375 33.4062C63.6458 35.0312 64 36.7708 64 38.625C64 39.4583 63.8854 40.3125 63.6562 41.1875C63.4271 42.0625 63.1042 42.9062 62.6875 43.7188C62.2708 44.5312 61.7708 45.2708 61.1875 45.9375C60.6042 46.6042 59.9583 47.1562 59.25 47.5938C59.9792 47.9896 60.6354 48.5312 61.2188 49.2188C61.8021 49.8854 62.3021 50.625 62.7188 51.4375C63.1354 52.25 63.4479 53.1042 63.6562 54C63.8854 54.875 64 55.7292 64 56.5625ZM37.125 61.0312H50.5625C51.1875 61.0312 51.7708 60.9167 52.3125 60.6875C52.8542 60.4583 53.3229 60.1458 53.7188 59.75C54.1354 59.3333 54.4583 58.8542 54.6875 58.3125C54.9167 57.7708 55.0312 57.1875 55.0312 56.5625C55.0312 55.9375 54.9167 55.3542 54.6875 54.8125C54.4583 54.2708 54.1354 53.8021 53.7188 53.4062C53.3229 52.9896 52.8542 52.6667 52.3125 52.4375C51.7708 52.2083 51.1875 52.0938 50.5625 52.0938H37.125V61.0312ZM37.125 43.125H50.5625C51.1875 43.125 51.7708 43.0104 52.3125 42.7812C52.8542 42.5521 53.3229 42.2396 53.7188 41.8438C54.1354 41.4271 54.4583 40.9479 54.6875 40.4062C54.9167 39.8438 55.0312 39.25 55.0312 38.625C55.0312 38 54.9167 37.4167 54.6875 36.875C54.4583 36.3333 54.1354 35.8646 53.7188 35.4688C53.3229 35.0521 52.8542 34.7292 52.3125 34.5C51.7708 34.2708 51.1875 34.1562 50.5625 34.1562H37.125V43.125Z" fill="white"/>
<defs>
<linearGradient id="paint0_linear_22_2" x1="0" y1="0" x2="100" y2="100" gradientUnits="userSpaceOnUse">
<stop stop-color="#4D54F4"/>
<stop offset="1" stop-color="#020893"/>
</linearGradient>
</defs>
</svg>
